<svg width="164" height="31" viewBox="0 0 164 31" fill="none" xmlns="http://www.w3.org/2000/svg">
<g clip-path="url(#clip0_1054_49935)">
<path d="M44.4629 8.77702C44.9004 8.77702 45.2754 9.13119 45.2754 9.58952V25.1104C45.2754 25.5479 44.8796 25.902 44.4629 25.902H42.3587C41.9629 25.902 41.5671 25.5895 41.5671 25.152V23.7145C40.5046 25.277 38.6712 26.3604 36.0046 26.3604C31.5462 26.3604 28.7962 23.402 28.7962 19.0062V9.54785C28.7962 9.11035 29.1921 8.75619 29.6087 8.75619H31.7129C32.1504 8.75619 32.5046 9.11035 32.5046 9.54785V18.402C32.5046 21.2562 34.0046 23.152 36.9629 23.152C39.8587 23.152 41.5671 21.1937 41.5671 18.4437V9.54785C41.5671 9.11035 41.9629 8.75619 42.3587 8.75619H44.4629M13.4212 0.172852C6.21289 0.172852 0.400391 5.77702 0.400391 13.2562C0.400391 20.7562 6.21289 26.3395 13.4212 26.3395C14.6504 26.3395 15.8379 26.1729 16.9629 25.8604L18.3796 29.5062C18.5254 29.902 18.8171 30.152 19.3379 30.152H21.5879C22.1296 30.152 22.5254 29.7979 22.2754 29.1104L20.4421 24.3395C24.0462 22.0687 26.4421 18.0479 26.4421 13.2354C26.4421 5.77702 20.6296 0.172852 13.4212 0.172852ZM19.0879 20.8604L17.4421 16.5895C17.2962 16.2354 17.0046 15.902 16.3796 15.902H14.2337C13.6921 15.902 13.2754 16.2562 13.5254 16.9437L15.6921 22.5479C14.9837 22.7354 14.2129 22.8187 13.4212 22.8187C8.15039 22.8187 4.40039 18.6729 4.40039 13.2562C4.40039 7.83952 8.15039 3.69369 13.4212 3.69369C18.6921 3.69369 22.4421 7.83952 22.4421 13.2562C22.4421 16.4229 21.1712 19.1312 19.0879 20.8604ZM163.588 25.027C163.775 25.4645 163.546 25.8812 163.025 25.8812H160.671C160.234 25.8812 159.88 25.6729 159.734 25.2354L155.38 13.527L150.963 25.2354C150.775 25.6937 150.463 25.8812 150.025 25.8812H147.921C147.484 25.8812 147.171 25.6937 146.984 25.2354L142.525 13.4645L138.13 25.2354C137.942 25.6729 137.63 25.8812 137.192 25.8812H134.984C134.546 25.8812 134.234 25.6729 134.046 25.2354L129.692 13.4645L125.192 25.2354C125.005 25.6937 124.692 25.8812 124.255 25.8812H122.15C121.713 25.8812 121.4 25.6937 121.213 25.2354L116.817 13.4645L112.421 25.2354C112.275 25.6729 111.921 25.8812 111.484 25.8812H109.192C108.65 25.8812 108.442 25.4437 108.63 25.027L114.588 9.44369C114.775 8.98535 115.088 8.75619 115.525 8.75619H118.088C118.525 8.75619 118.838 8.96452 119.025 9.44369L123.317 20.8187L127.567 9.44369C127.755 8.98535 128.067 8.75619 128.505 8.75619H131.025C131.463 8.75619 131.775 8.96452 131.963 9.44369L136.171 20.8187L140.38 9.44369C140.567 8.98535 140.88 8.75619 141.317 8.75619H143.859C144.296 8.75619 144.609 8.96452 144.796 9.44369L149.067 20.8187L153.234 9.44369C153.421 8.98535 153.734 8.75619 154.171 8.75619H156.734C157.171 8.75619 157.484 8.96452 157.671 9.44369L163.588 25.027ZM64.8587 8.77702H62.7546C62.3171 8.77702 61.9421 9.13119 61.9421 9.58952V11.0062C60.8796 9.40202 58.7962 8.25619 56.3379 8.25619C51.6921 8.25619 47.7129 11.9229 47.7129 17.277C47.7129 22.6937 51.7129 26.3395 56.3171 26.3395C58.8171 26.3395 60.8379 25.1937 61.9629 23.5895V25.0895C61.9629 25.527 62.3587 25.8812 62.7754 25.8812H64.8796C65.3171 25.8812 65.6712 25.527 65.6712 25.0895V9.58952C65.6504 9.13119 65.2962 8.77702 64.8587 8.77702ZM56.7337 22.9229C53.6712 22.9229 51.4837 20.4229 51.4837 17.3187C51.4837 14.1729 53.6504 11.7562 56.7337 11.7562C59.7754 11.7562 61.9837 14.1729 61.9837 17.3187C61.9629 20.4437 59.7546 22.9229 56.7337 22.9229ZM89.9629 23.4645C90.4212 24.027 90.0254 24.4645 89.7754 24.652C88.3171 25.7562 86.3796 26.3604 84.2754 26.3604C78.9629 26.3604 75.4212 22.4645 75.4212 17.3395C75.4212 12.2145 78.9629 8.27702 84.2754 8.27702C86.3796 8.27702 88.2962 8.88118 89.7754 9.98535C90.0254 10.1729 90.3796 10.5479 89.9629 11.1729L88.9629 12.5687C88.5671 13.1104 88.1087 12.9645 87.7129 12.7145C86.7754 12.152 85.6712 11.6729 84.4004 11.6729C81.2962 11.6729 79.2337 14.1729 79.2337 17.3395C79.2337 20.5062 81.2962 22.9854 84.4004 22.9854C85.6921 22.9854 86.7129 22.4854 87.6504 21.9437C88.0462 21.7354 88.4629 21.5479 88.9004 22.1312L89.9629 23.4645ZM99.8796 8.29785C94.8796 8.29785 90.9004 12.2145 90.9004 17.3187C90.9004 22.4645 94.9004 26.3395 99.8796 26.3395C104.88 26.3395 108.859 22.4437 108.859 17.3187C108.88 12.2354 104.88 8.29785 99.8796 8.29785ZM99.8796 22.902C96.8171 22.902 94.6296 20.4437 94.6296 17.3395C94.6296 14.1937 96.7962 11.777 99.8796 11.777C102.942 11.777 105.13 14.1937 105.13 17.3395C105.13 20.4437 102.963 22.902 99.8796 22.902ZM72.2337 0.631185C72.6921 0.631185 73.0254 1.02702 73.0254 1.44368V25.0687C73.0254 25.5062 72.7129 25.8812 72.2337 25.8812H70.1296C69.6921 25.8812 69.3171 25.4854 69.3171 25.0687V1.46452C69.3171 1.02702 69.7129 0.652018 70.1296 0.652018H72.2337" fill="#8B90C1"/>
</g>
<defs>
<clipPath id="clip0_1054_49935">
<rect width="163.25" height="30" fill="white" transform="translate(0.400391 0.172852)"/>
</clipPath>
</defs>
</svg>
