<svg width="151" height="36" viewBox="0 0 151 36" fill="none" xmlns="http://www.w3.org/2000/svg">
<g clip-path="url(#clip0_1133_63551)">
<path d="M43.2229 20.541C43.2229 21.0556 43.2229 23.1654 43.2743 23.5771C43.1199 23.7314 42.9141 23.8344 42.7083 23.8344C42.451 23.4742 41.9364 22.9081 40.7014 21.4673L36.6877 16.8875C35.5556 15.6525 35.041 14.9836 34.7323 14.7263C34.6808 14.7263 34.6808 14.9321 34.6808 15.8069V19.1517C34.6808 20.4381 34.6808 22.0333 34.9896 22.5479C35.1954 22.8052 35.5042 22.9596 35.8644 22.9596L36.2246 23.011C36.3789 23.1139 36.3789 23.4742 36.1731 23.5256C35.5556 23.4742 34.8867 23.4742 34.2177 23.4742C33.5488 23.4742 33.0342 23.4742 32.4167 23.5256C32.2623 23.4227 32.2623 23.1654 32.3652 23.011L32.7254 22.9081C33.0342 22.8567 33.3429 22.8052 33.4973 22.4965C33.7031 21.9819 33.7031 20.4381 33.7031 19.1002V15.035C33.7031 13.6971 33.7031 13.4398 33.1371 12.9253C32.8798 12.7709 32.5711 12.668 32.2109 12.5651L31.9536 12.5136C31.8506 12.4107 31.8506 12.0505 32.005 11.999C32.674 12.0505 33.6002 12.0505 34.0119 12.0505C34.3721 12.0505 34.7838 12.0505 35.1954 11.999C35.5042 12.7194 37.3566 14.8807 37.9741 15.5496L39.6723 17.4021C40.3927 18.174 41.9879 20.0265 42.1422 20.1294C42.1937 20.0779 42.1937 19.975 42.1937 19.7177V16.373C42.1937 15.0865 42.1937 13.4913 41.885 12.9767C41.6791 12.7194 41.3704 12.5651 41.0102 12.5651L40.5985 12.5136C40.4441 12.4107 40.4441 12.0505 40.65 11.999C41.3189 12.0505 41.9364 12.0505 42.6054 12.0505C43.2743 12.0505 43.7889 12.0505 44.4064 11.999C44.5608 12.1019 44.5608 12.3078 44.4579 12.4621C44.4579 12.4621 44.4578 12.4621 44.4064 12.5136L43.9947 12.6165C43.686 12.668 43.3772 12.7194 43.2743 13.0282C43.017 13.5428 43.017 15.035 43.017 16.4244L43.2229 20.541Z" fill="#8B90C1"/>
<path d="M51.6618 12.5644C54.3891 12.5644 55.5726 15.5489 55.5726 18.1733C55.5726 21.621 53.9774 23.0618 52.022 23.0618C49.0889 23.0618 48.0597 19.8199 48.0597 17.4529C48.1112 13.7993 49.9637 12.5644 51.6618 12.5644ZM51.9191 11.8954C48.6772 11.741 45.8985 14.2625 45.7441 17.5558C45.7441 17.7102 45.7441 17.8645 45.7441 18.0189C45.7441 21.1064 47.9568 23.7822 51.8676 23.7822C55.3153 23.7822 57.8882 21.2607 57.8882 17.8645C57.9397 14.7256 55.8814 11.8954 51.9191 11.8954Z" fill="#8B90C1"/>
<path d="M63.2401 13.5944C63.2401 12.874 63.2401 12.8225 62.7769 12.8225H62.2624C60.6672 12.8225 60.204 13.0283 59.5865 14.4177C59.3807 14.5206 59.1749 14.4692 59.0205 14.3148C59.2778 13.4915 59.5351 12.6167 59.6895 11.7419C59.7409 11.6904 59.7924 11.6904 59.8953 11.6904C59.9468 11.6904 59.9982 11.6904 60.0497 11.7419C60.1526 12.1536 60.3584 12.205 61.5419 12.205H67.614C68.4373 12.205 68.6946 12.1536 68.9004 11.7419C68.9519 11.6904 69.0548 11.6904 69.1063 11.6904C69.2092 11.6904 69.2606 11.6904 69.3121 11.7933C69.1063 12.6681 69.0548 13.5944 69.0548 14.5206C68.9004 14.675 68.6946 14.675 68.5402 14.5721C68.3344 13.2342 67.9742 12.9254 66.1732 12.9254H65.6586C65.1955 12.9254 65.1955 12.9769 65.1955 13.6973V21.1072C65.1955 22.9083 65.3498 22.9597 66.1732 23.0626L66.7907 23.1141C66.945 23.2685 66.8936 23.4743 66.7392 23.6287C65.7615 23.5772 64.9896 23.5772 64.2178 23.5772C63.4459 23.5772 62.674 23.5772 61.5419 23.6287C61.3876 23.4743 61.3876 23.2685 61.4905 23.1141L62.2109 23.0112C63.0342 22.9597 63.1886 22.9083 63.1886 21.0558L63.2401 13.5944Z" fill="#8B90C1"/>
<path d="M74.4576 13.6456C74.4576 12.8737 74.4576 12.8223 75.3839 12.8223C76.8761 12.8223 77.7509 14.0058 77.7509 15.3437C77.7509 16.9904 76.9791 17.8137 75.2809 17.8137C74.4576 17.8137 74.4576 17.7622 74.4576 17.2476V13.6456ZM72.4508 21.0041C72.4508 22.8051 72.2964 22.8566 71.4731 22.9595L71.1129 23.0109C70.9585 23.1653 70.9585 23.3711 71.1129 23.4741C71.1129 23.4741 71.1128 23.4741 71.1643 23.5255C71.9362 23.4741 72.708 23.4741 73.4799 23.4741C74.2518 23.4741 75.0237 23.4741 75.7441 23.5255C75.8984 23.3711 75.8984 23.1653 75.7955 23.0109L75.4353 22.9595C74.612 22.8566 74.4576 22.8051 74.4576 21.0041V18.7914C74.4576 18.4312 74.4576 18.4312 74.9722 18.4312C75.4353 18.3283 75.847 18.5856 76.0528 18.9972C76.4645 19.6662 76.9276 20.6439 77.3907 21.3128C78.4199 22.908 79.3461 23.577 80.9928 23.577C81.353 23.577 81.7646 23.577 82.1249 23.4741C82.1763 23.3711 82.1763 23.2168 82.0734 23.1139C81.6617 23.0624 81.2501 22.8566 80.8899 22.5993C80.0665 21.9303 79.2432 20.4895 77.8538 18.1739C77.8024 18.071 77.7509 17.9166 77.8538 17.8651C78.6772 17.5049 79.9122 16.7331 79.9122 15.1379C79.9636 14.0572 79.3461 13.0795 78.4199 12.6164C77.3907 12.1533 76.3101 11.9475 75.178 11.9989C73.7887 11.9989 72.2964 12.0504 71.2158 12.1533C71.1128 12.3077 71.1128 12.5135 71.2158 12.6164L71.6789 12.6679C72.5022 12.7708 72.5022 12.9766 72.5022 14.6233L72.4508 21.0041Z" fill="#8B90C1"/>
<path d="M85.0578 14.6237C85.0578 12.8227 84.9035 12.7712 84.0801 12.6168L83.8229 12.5654C83.7199 12.4624 83.7199 12.1537 83.8743 12.0508C84.1831 12.0508 84.5433 12.1022 84.9549 12.1022C85.3666 12.1022 85.7268 12.1022 86.087 12.1022H89.3803C90.4609 12.1022 91.4901 12.1022 91.6959 12.0508C91.7474 12.3595 91.8503 13.6974 91.9532 14.4178C91.9018 14.5722 91.5416 14.5722 91.3872 14.4693C91.1299 13.4916 90.8726 13.0285 90.3066 12.9256C89.8434 12.8227 89.3803 12.7712 88.9172 12.7712H87.7851C87.0647 12.7712 87.0647 12.8227 87.0647 13.8004V16.682C87.0647 17.1451 87.0647 17.1451 87.4764 17.1451H88.2997C89.792 17.1451 90.1007 17.1451 90.2036 16.3733L90.3066 15.8072C90.4609 15.7043 90.7697 15.7043 90.8726 15.8072C90.8726 16.2703 90.8211 16.8878 90.8211 17.5053C90.8211 18.1228 90.8726 18.7403 90.8726 19.3064C90.7182 19.4093 90.5124 19.4093 90.3066 19.3064L90.2036 18.6374C90.1007 17.917 89.792 17.8655 88.2997 17.8655H87.4764C87.0647 17.8655 87.0647 17.917 87.0647 18.3287V20.4899C87.0647 21.3647 87.1162 21.9822 87.3735 22.2909C87.6307 22.5997 87.888 22.6511 89.3289 22.6511C91.4901 22.7026 91.9018 22.188 92.4678 20.7986C92.6736 20.6957 92.8795 20.7472 93.0338 20.9016C92.8795 21.7763 92.6736 22.5997 92.3134 23.3715C91.9532 23.3715 91.3872 23.3201 90.6668 23.3201C89.9464 23.3201 89.0716 23.3201 88.0939 23.3201H86.1385C85.3666 23.3201 84.3374 23.3201 83.5656 23.3715C83.4112 23.2172 83.4112 23.0113 83.5141 22.857L84.1316 22.8055C84.9549 22.7026 85.1093 22.6511 85.1093 20.8501L85.0578 14.6237Z" fill="#8B90C1"/>
<path d="M102.4 14.3139C102.4 13.4906 102.4 13.1304 102.554 13.0275C102.966 12.8217 103.481 12.7702 103.944 12.7702C106.825 12.7702 108.781 14.4169 108.781 17.8131C108.781 20.6947 107.391 22.856 104.355 22.856C102.503 22.856 102.4 21.9812 102.4 20.2831V14.3139ZM100.393 21.0035C100.393 22.8045 100.239 22.856 99.4153 22.9589L99.0551 23.0103C98.9522 23.1133 98.9522 23.422 99.1066 23.5249C99.8785 23.4735 100.65 23.4735 101.268 23.4735C101.577 23.4735 101.937 23.4735 102.348 23.5249C102.76 23.5764 103.223 23.5764 103.738 23.5764C105.179 23.6278 106.671 23.3706 108.009 22.7531C109.913 21.8268 111.096 19.9229 111.096 17.8131C111.199 15.4975 109.758 13.4392 107.546 12.6673C106.259 12.2042 104.87 12.0498 103.481 12.1013C101.782 12.1013 100.393 12.1527 99.2095 12.2556C99.0551 12.41 99.0551 12.6158 99.2095 12.7187L99.5697 12.7702C100.393 12.8731 100.393 13.079 100.393 14.7256V21.0035Z" fill="#8B90C1"/>
<path d="M115.624 18.4825C115.213 18.4825 115.161 18.4825 115.367 17.9679L116.088 15.9611C116.396 15.1377 116.551 14.7261 116.602 14.6232H116.654C116.859 15.0348 117.014 15.4979 117.117 15.9611L117.837 18.0194C117.991 18.431 117.889 18.4825 117.425 18.4825H115.624ZM117.631 19.2544C118.094 19.2544 118.146 19.2544 118.352 19.7175L119.175 22.0331C119.381 22.7535 119.329 22.8564 118.712 22.9594L118.3 23.0108C118.197 23.1652 118.197 23.371 118.352 23.5254C118.969 23.5254 119.69 23.4739 120.461 23.4739C121.336 23.4739 122.005 23.4739 122.674 23.5254C122.829 23.371 122.829 23.1652 122.674 23.0108L122.417 22.9594C121.542 22.805 121.439 22.7021 121.079 21.5185L118.609 14.3144C118.352 13.5425 118.094 12.7192 117.837 11.9473C117.786 11.8444 117.683 11.793 117.528 11.793C117.22 12.1532 116.808 12.4619 116.345 12.6163C116.345 13.0794 116.242 13.4911 116.036 13.8513L113.669 19.9748C113.309 20.901 113.051 21.6214 112.846 22.0846C112.588 22.6506 112.383 22.805 111.919 22.8564L111.405 22.9594C111.25 23.1137 111.25 23.3196 111.405 23.4739C112.022 23.4225 112.537 23.4225 113.103 23.4225C113.823 23.4225 114.389 23.4225 114.904 23.4739C115.058 23.3196 115.058 23.1137 114.955 22.9594L114.441 22.8564C113.823 22.7535 113.72 22.7021 114.081 21.7244L114.801 19.666C114.955 19.2029 114.955 19.2029 115.367 19.2029L117.631 19.2544Z" fill="#8B90C1"/>
<path d="M138.42 23.011C138.574 23.0625 138.574 23.4227 138.368 23.5256C137.648 23.4742 136.979 23.4742 136.259 23.4742C135.435 23.4742 134.715 23.4742 133.943 23.5256C133.789 23.4742 133.737 23.1139 133.892 23.011L134.355 22.9081C135.024 22.8052 135.075 22.6508 135.075 21.4673V14.5205H135.024C134.561 15.4467 134.303 15.9613 133.994 16.6817L132.502 19.6663C131.936 20.8498 131.061 22.7537 130.753 23.5771C130.598 23.6285 130.444 23.6285 130.29 23.5771C129.981 22.6508 129.26 20.9527 128.849 20.1294L127.305 16.8361C126.996 16.1157 126.533 15.035 126.327 14.5205H126.276C126.224 15.3438 126.224 16.6817 126.173 17.4021C126.121 18.4313 126.121 19.975 126.121 21.3644C126.121 22.4965 126.121 22.7537 126.893 22.9081L127.459 23.011C127.562 23.1139 127.562 23.4227 127.459 23.5256C126.842 23.4742 126.276 23.4742 125.658 23.4742C125.092 23.4742 124.475 23.4742 123.806 23.5256C123.651 23.3712 123.651 23.1654 123.754 23.011L124.063 22.9596C124.886 22.8567 125.041 22.5994 125.144 21.5702C125.247 20.541 125.298 19.3575 125.401 17.6079C125.452 16.4244 125.555 15.035 125.555 13.9544C125.555 13.1311 125.298 12.7709 124.629 12.668L124.063 12.5651C123.96 12.4621 123.96 12.1019 124.115 12.0505C124.629 12.1019 125.092 12.1019 125.71 12.1019C126.327 12.1019 126.893 12.1019 127.562 12.0505C127.717 13.0282 128.025 14.0059 128.488 14.8807L130.392 18.8429C130.547 19.1517 130.958 19.975 131.216 20.3867C131.473 19.8721 131.73 19.409 132.091 18.5856L133.686 15.2923C134.252 14.2632 134.715 13.1311 135.075 11.999C135.538 12.0505 136.104 12.0505 136.516 12.0505C137.236 12.0505 137.854 12.0505 138.317 11.999C138.471 12.0505 138.523 12.2563 138.471 12.3592C138.471 12.4107 138.42 12.4621 138.368 12.5136L137.802 12.6165C137.031 12.7194 136.876 13.0282 136.876 13.903C136.876 16.4244 136.928 18.9973 137.031 21.5187C137.082 22.6508 137.288 22.8052 137.802 22.8567L138.42 23.011Z" fill="#8B90C1"/>
<path d="M142.125 14.6237C142.125 12.8227 141.97 12.7712 141.147 12.6168L140.89 12.5654C140.787 12.4624 140.787 12.1537 140.941 12.0508C141.25 12.0508 141.61 12.1022 142.022 12.1022C142.433 12.1022 142.794 12.1022 143.154 12.1022H146.447C147.528 12.1022 148.557 12.1022 148.763 12.0508C148.814 12.3595 148.917 13.6974 149.02 14.4178C148.969 14.5722 148.608 14.5722 148.454 14.4693C148.197 13.4916 147.939 13.0285 147.373 12.9256C146.91 12.8227 146.447 12.7712 145.984 12.7712H144.852C144.131 12.7712 144.131 12.8227 144.131 13.8004V16.682C144.131 17.1451 144.131 17.1451 144.543 17.1451H145.366C146.859 17.1451 147.168 17.1451 147.27 16.3733L147.373 15.8072C147.528 15.6528 147.785 15.6528 147.939 15.8072C147.939 16.2703 147.888 16.8878 147.888 17.5053C147.888 18.1228 147.939 18.7403 147.939 19.3064C147.785 19.4093 147.579 19.4093 147.373 19.3064L147.219 18.6374C147.116 17.917 146.807 17.8655 145.315 17.8655H144.492C144.08 17.8655 144.08 17.917 144.08 18.3287V20.4899C144.08 21.3647 144.131 21.9822 144.389 22.2909C144.646 22.5997 144.903 22.6511 146.344 22.6511C148.505 22.7026 148.917 22.188 149.483 20.7986C149.689 20.6957 149.895 20.7472 150.049 20.9016C149.895 21.7763 149.638 22.5997 149.329 23.3715C148.969 23.3715 148.403 23.3201 147.682 23.3201C146.962 23.3201 146.087 23.3201 145.109 23.3201H143.102C142.33 23.3201 141.301 23.3201 140.529 23.3715C140.375 23.2172 140.375 23.0113 140.478 22.857L141.095 22.8055C141.919 22.7026 142.073 22.6511 142.073 20.8501L142.125 14.6237Z" fill="#8B90C1"/>
<path d="M33.1366 2.5819C33.1366 1.50128 33.0337 1.50128 32.4162 1.34691L32.2104 1.29545C32.1075 1.19254 32.1075 0.935247 32.2619 0.883789C32.7764 0.935247 33.291 0.935247 33.7541 0.935247C34.2173 0.935247 34.7318 0.935247 35.3493 0.883789C35.4523 0.935247 35.5037 1.19254 35.3493 1.29545L35.0406 1.34691C34.3716 1.44983 34.3202 1.50128 34.3202 2.5819V4.7946C34.3202 6.33834 34.8348 7.41895 36.327 7.41895C37.7164 7.41895 38.3339 6.33833 38.3339 4.84605V3.35377C38.3339 1.81003 38.231 1.44983 37.562 1.34691L37.2533 1.29545C37.1504 1.19254 37.1504 1.03816 37.2533 0.935247C37.7679 0.986705 38.1281 0.986705 38.5397 0.986705C38.9514 0.986705 39.3116 0.986705 39.8262 0.935247C39.9291 1.03816 39.9291 1.19254 39.8776 1.29545C39.8776 1.29545 39.8776 1.29545 39.8262 1.34691L39.3631 1.39837C38.9514 1.44983 38.8485 1.86149 38.8485 3.40523V4.94897C38.8485 6.95583 37.9222 7.98499 35.9668 7.98499C35.195 8.03645 34.3716 7.83062 33.7541 7.31604C33.291 6.85291 33.0852 6.1325 33.0852 5.10334L33.1366 2.5819Z" fill="#8B90C1"/>
<path d="M50.221 3.35377C50.221 1.81003 50.1181 1.39837 49.5521 1.34691L49.0375 1.29545C48.9346 1.19254 48.9346 1.03816 49.0375 0.935247C49.6035 0.986705 49.9638 0.986705 50.4269 0.986705C50.89 0.986705 51.1987 0.986705 51.7133 0.935247C51.8162 1.03816 51.8162 1.19254 51.7133 1.29545L51.2502 1.34691C50.8385 1.39837 50.7356 1.81003 50.7356 3.35377V5.97813C50.7356 6.28688 50.7356 7.52187 50.7871 7.77916C50.7356 7.88207 50.5813 7.93353 50.4783 7.93353C50.324 7.7277 50.0152 7.36749 49.0375 6.33834L46.6704 3.81689C46.053 3.1994 45.6927 2.78773 45.4869 2.63336C45.4355 2.63336 45.4355 2.78773 45.4355 3.30231V5.36063C45.4355 6.90437 45.5384 7.31604 46.1044 7.36749L46.619 7.41895C46.7219 7.52187 46.7219 7.67624 46.619 7.77916C46.619 7.77916 46.5675 7.77916 46.5675 7.83062C46.0015 7.77916 45.6413 7.77916 45.1782 7.77916C44.715 7.77916 44.4063 7.77916 43.8917 7.83062C43.7888 7.7277 43.7888 7.57333 43.8917 7.47041L44.3034 7.31604C44.715 7.26458 44.818 6.85291 44.818 5.30918V2.53044C44.818 2.01586 44.818 1.81003 44.5092 1.55274C44.3548 1.44983 44.149 1.34691 43.9432 1.34691L43.7373 1.29545C43.6344 1.19254 43.6344 1.03816 43.7373 0.935247C43.7373 0.935247 43.7888 0.935247 43.7888 0.883789C44.4063 0.935247 44.818 0.935247 45.1267 0.935247C45.3325 0.935247 45.5898 0.935247 45.7957 0.883789C46.2073 1.6042 46.7219 2.2217 47.3394 2.78773L48.7802 4.28002C49.089 4.64022 50.0152 5.61792 50.1696 5.72084C50.2725 5.66938 50.2725 5.46355 50.2725 5.10334V3.35377H50.221Z" fill="#8B90C1"/>
<path d="M56.8587 2.5819C56.8587 1.50128 56.8072 1.44983 56.1383 1.34691L55.8295 1.29545C55.7266 1.19254 55.7266 0.935247 55.881 0.883789C56.4985 0.935247 56.9616 0.935247 57.4762 0.935247C57.9908 0.935247 58.4539 0.935247 59.0714 0.883789C59.1743 0.935247 59.2258 1.19254 59.1229 1.29545L58.8141 1.34691C58.1451 1.44983 58.0937 1.50128 58.0937 2.5819V6.08105C58.0937 7.16166 58.1451 7.21312 58.8141 7.31604L59.1229 7.36749C59.2258 7.47041 59.2258 7.62478 59.1229 7.7277C58.5568 7.67624 57.9908 7.67624 57.5276 7.67624C57.0645 7.67624 56.5499 7.67624 55.9325 7.7277C55.8295 7.62478 55.7781 7.47041 55.881 7.36749L56.1383 7.31604C56.8072 7.21312 56.8587 7.16166 56.8587 6.08105V2.5819Z" fill="#8B90C1"/>
<path d="M64.0632 2.63336C63.6001 1.6042 63.5487 1.55274 63.1884 1.44983L62.6739 1.34691C62.571 1.24399 62.571 1.08962 62.6739 0.986705C63.0855 1.03816 63.6001 1.03816 64.0632 1.03816C64.6293 1.03816 65.0924 1.03816 65.5555 0.986705C65.6584 1.08962 65.7099 1.19254 65.607 1.34691L65.5555 1.39837L65.2468 1.44983C64.8351 1.50128 64.8351 1.70712 65.1953 2.47899L65.9672 4.1771C66.3788 5.05189 66.6361 5.66938 66.842 6.1325C67.1507 5.46355 67.408 4.84605 67.7167 4.1771C68.0255 3.50815 68.4886 2.37607 68.643 1.91295C68.7459 1.6042 68.7459 1.50128 68.2828 1.39837L67.974 1.29545C67.8711 1.19254 67.8711 1.03816 67.9226 0.935247L67.974 0.883789C68.4372 0.935247 68.8488 0.935247 69.2605 0.935247C69.6207 0.935247 69.9809 0.935247 70.3411 0.883789C70.444 0.935247 70.4955 1.08962 70.444 1.24399C70.444 1.24399 70.444 1.29545 70.3926 1.29545L70.0324 1.39837C69.5692 1.50128 69.4663 1.65566 68.9517 2.68482L67.7682 5.25772C67.3051 6.23542 66.842 7.36749 66.6876 7.88207C66.6361 7.93353 66.5847 7.93353 66.4818 7.93353C66.4303 7.93353 66.3788 7.93353 66.2759 7.88207C66.1216 7.47041 65.9672 6.95583 65.7613 6.54417L64.0632 2.63336Z" fill="#8B90C1"/>
<path d="M74.8178 2.5819C74.8178 1.50128 74.7663 1.44983 74.1488 1.34691L73.943 1.29545C73.8401 1.24399 73.8401 0.986705 73.9944 0.883789C74.2003 0.883789 74.4576 0.935247 74.7148 0.935247C74.9721 0.935247 75.2294 0.935247 75.4353 0.935247H77.6479C78.3169 0.935247 78.9344 0.935247 79.0888 0.883789C79.0888 1.08962 79.1917 1.81003 79.2431 2.47899C79.1402 2.5819 78.9859 2.63336 78.8315 2.53044C78.78 2.27315 78.6771 2.01586 78.5742 1.75857C78.3169 1.39837 77.6479 1.39837 77.2363 1.39837H76.5673C76.0013 1.39837 76.0013 1.39837 76.0013 1.91295V3.66252C76.0013 3.97127 76.0013 3.97127 76.31 3.97127H77.0305C77.8538 3.97127 77.9052 3.86835 78.0596 3.35377L78.1625 3.04502C78.2654 2.94211 78.4198 2.94211 78.5227 2.99357C78.5227 2.99357 78.5227 2.99357 78.5742 3.04502C78.5227 3.50815 78.5227 3.76544 78.5227 4.12564C78.5227 4.48585 78.5227 4.7946 78.5742 5.25772C78.4713 5.36063 78.3169 5.41209 78.214 5.30918L78.1111 5.00043C78.0081 4.53731 77.9052 4.43439 77.0819 4.43439H76.3615C76.0527 4.43439 76.0527 4.48585 76.0527 4.7946V5.92667C76.0013 6.28688 76.0527 6.69854 76.2071 7.05875C76.3615 7.21312 76.6188 7.26458 77.4936 7.26458C78.4713 7.26458 79.0888 7.21312 79.5004 5.97813C79.6033 5.87521 79.7577 5.87521 79.8606 5.97813C79.8606 5.97813 79.8606 6.02959 79.9121 6.02959C79.8606 6.64708 79.7063 7.21312 79.449 7.77916C78.9859 7.77916 78.5227 7.7277 78.1111 7.7277C77.6994 7.7277 77.2363 7.7277 76.8246 7.7277H75.4353C74.9207 7.7277 74.4576 7.7277 73.6857 7.77916C73.5828 7.7277 73.5313 7.47041 73.6342 7.36749L74.0459 7.31604C74.7148 7.26458 74.7663 7.16166 74.7663 6.08105L74.8178 2.5819Z" fill="#8B90C1"/>
<path d="M85.9849 1.81026C85.9849 1.39859 86.0878 1.39859 86.6539 1.39859C87.4772 1.29568 88.1976 1.86171 88.3005 2.68504C88.3005 2.7365 88.3005 2.78796 88.3005 2.83942C88.3005 3.92003 87.7859 4.3317 86.7568 4.3317C85.9849 4.3317 85.9849 4.3317 85.9849 3.92003V1.81026ZM84.8014 6.08127C84.8014 7.16189 84.7499 7.16189 84.081 7.31626L83.8751 7.36772C83.7722 7.41918 83.7208 7.57355 83.8237 7.67647C83.8237 7.72792 83.8751 7.72792 83.9266 7.72792C84.4926 7.67647 84.9558 7.67647 85.4703 7.67647C85.9849 7.67647 86.448 7.67647 87.117 7.72792C87.2199 7.62501 87.2714 7.47063 87.1684 7.36772L86.8082 7.31626C86.1393 7.21334 86.0878 7.16189 86.0878 6.08127V5.00065C86.0878 4.79482 86.1393 4.74336 86.551 4.74336C86.8082 4.74336 87.0141 4.79482 87.1684 5.00065C87.4772 5.51523 87.8889 6.18418 88.3005 6.69876C88.9695 7.57355 89.5355 7.8823 90.4618 7.8823C90.6676 7.8823 90.9249 7.8823 91.1307 7.83084C91.1822 7.77938 91.1822 7.67647 91.1307 7.57355C90.822 7.57355 90.5647 7.41918 90.3074 7.2648C89.5355 6.54439 88.8666 5.72106 88.352 4.79482C88.3005 4.74336 88.3005 4.64044 88.352 4.58899C89.1239 4.38315 89.6899 3.7142 89.6899 2.94233C89.6899 1.29568 88.1461 1.08984 86.7053 1.08984C85.8305 1.08984 84.9557 1.1413 84.1324 1.19276C83.978 1.24422 84.0295 1.55297 84.1324 1.60442L84.5955 1.65588C84.9558 1.70734 84.9558 1.96463 84.9558 2.99379L84.8014 6.08127Z" fill="#8B90C1"/>
<path d="M96.1215 4.53738C95.3496 4.12572 94.7321 3.55968 94.7321 2.6849C94.7321 1.55282 95.6069 0.729492 97.2021 0.729492C97.6653 0.78095 98.1798 0.832408 98.643 0.986782C98.7973 1.50136 98.9002 2.01594 98.8488 2.53052C98.7459 2.63344 98.5915 2.6849 98.4371 2.58198C98.3342 1.86157 97.7167 1.29553 96.9963 1.24407C96.0701 1.24407 95.7098 1.75865 95.7098 2.27323C95.7098 2.78781 96.1215 3.19948 96.739 3.50822L97.7167 4.0228C98.4886 4.38301 98.9517 5.15488 98.9517 5.97821C98.9517 7.2132 97.974 7.93361 96.4303 7.93361C95.8128 7.93361 95.1953 7.77924 94.6292 7.47049C94.3719 6.95591 94.269 6.44133 94.3205 5.87529C94.3719 5.77237 94.5263 5.72092 94.6292 5.77237C94.6807 5.77237 94.6807 5.82383 94.7321 5.82383C94.8351 6.38987 95.5555 7.47049 96.5846 7.47049C97.3565 7.47049 97.8711 7.05882 97.8711 6.33841C97.8711 5.82383 97.6653 5.30925 96.7905 4.89759L96.1215 4.53738Z" fill="#8B90C1"/>
<path d="M104.252 2.5819C104.252 1.50128 104.2 1.44983 103.531 1.34691L103.223 1.29545C103.12 1.19254 103.12 0.935247 103.223 0.883789C103.84 0.935247 104.303 0.935247 104.818 0.935247C105.332 0.935247 105.796 0.935247 106.413 0.883789C106.516 0.935247 106.567 1.19254 106.413 1.29545L106.104 1.34691C105.435 1.44983 105.384 1.50128 105.384 2.5819V6.08105C105.384 7.16166 105.435 7.21312 106.104 7.31604L106.413 7.36749C106.516 7.47041 106.516 7.62478 106.465 7.7277C106.465 7.7277 106.465 7.7277 106.413 7.77916C105.847 7.7277 105.332 7.7277 104.818 7.7277C104.303 7.7277 103.84 7.7277 103.223 7.77916C103.12 7.67624 103.12 7.52187 103.223 7.41895L103.531 7.36749C104.2 7.26458 104.252 7.21312 104.252 6.1325V2.5819Z" fill="#8B90C1"/>
<path d="M113.154 1.81002C113.154 1.39835 113.154 1.39835 112.845 1.39835H112.33C111.404 1.39835 110.993 1.50127 110.581 2.58189C110.478 2.6848 110.324 2.63335 110.221 2.53043C110.221 2.53043 110.221 2.53043 110.221 2.47897C110.375 1.81002 110.581 1.03815 110.632 0.626484C110.735 0.575026 110.838 0.575026 110.89 0.626484C110.89 0.935232 111.147 0.935232 111.764 0.935232H116.087C116.653 0.935232 116.756 0.935232 116.91 0.626484C117.013 0.575026 117.116 0.575026 117.219 0.677942C117.065 1.29544 117.013 1.91293 117.065 2.47897C116.962 2.58189 116.807 2.58189 116.704 2.53043C116.704 2.53043 116.653 2.53043 116.653 2.47897C116.55 1.44981 116.138 1.3469 115.212 1.3469H114.698C114.389 1.3469 114.337 1.3469 114.337 1.75856V6.02957C114.337 7.11019 114.389 7.2131 115.058 7.26456L115.469 7.31602C115.572 7.41894 115.572 7.57331 115.469 7.67623C114.852 7.62477 114.234 7.62477 113.771 7.62477C113.308 7.62477 112.691 7.62477 112.073 7.67623C111.97 7.57331 111.919 7.41894 112.022 7.31602C112.022 7.31602 112.022 7.31602 112.073 7.26456L112.485 7.21311C113.154 7.16165 113.205 7.05873 113.205 5.97811L113.154 1.81002Z" fill="#8B90C1"/>
<path d="M123.395 5.66998C123.395 5.20686 123.24 4.74374 122.983 4.33207L121.851 2.2223C121.542 1.6048 121.388 1.45043 120.976 1.39897L120.564 1.34751C120.462 1.24459 120.462 1.09022 120.564 0.987305C121.079 1.03876 121.439 1.03876 122.005 1.03876C122.468 1.03876 122.829 1.03876 123.343 0.987305C123.446 1.03876 123.498 1.19314 123.395 1.29605L123.343 1.34751L123.137 1.39897C122.777 1.45043 122.726 1.55334 122.983 2.06792L123.549 3.14854C123.755 3.61166 124.012 4.02333 124.269 4.43499C124.527 4.02333 124.733 3.66312 124.99 3.14854L125.607 2.01646C125.865 1.6048 125.865 1.45043 125.504 1.39897L125.196 1.34751C125.093 1.29605 125.041 1.14168 125.144 1.03876C125.144 0.987305 125.196 0.987305 125.247 0.987305C125.71 1.03876 126.07 1.03876 126.431 1.03876C126.791 1.03876 127.1 1.03876 127.511 0.987305C127.614 1.03876 127.666 1.24459 127.563 1.34751C127.563 1.34751 127.563 1.39897 127.511 1.39897H127.151C126.688 1.50188 126.585 1.6048 126.122 2.37667L125.144 3.92041C124.578 4.7952 124.527 4.94957 124.527 5.41269V6.23602C124.527 7.16226 124.578 7.26518 125.247 7.31664L125.659 7.36809C125.762 7.47101 125.762 7.62538 125.659 7.7283C124.99 7.67684 124.475 7.67684 123.961 7.67684C123.446 7.67684 122.983 7.67684 122.263 7.7283C122.16 7.62538 122.108 7.47101 122.211 7.36809L122.623 7.31664C123.292 7.26518 123.343 7.16226 123.343 6.23602L123.395 5.66998Z" fill="#8B90C1"/>
<path d="M136.722 1.14086C138.42 1.14086 139.244 2.83897 139.244 4.48562C139.244 6.5954 138.112 7.41873 136.928 7.41873C135.127 7.41873 134.407 5.72062 134.407 4.07396C134.355 1.91273 135.59 1.14086 136.722 1.14086ZM136.825 0.677734C134.561 0.677734 132.966 2.27293 132.966 4.33125C132.966 6.28665 134.407 7.83039 136.825 7.83039C139.038 7.83039 140.633 6.28665 140.633 4.22833C140.582 2.37585 139.295 0.729192 136.825 0.677734Z" fill="#8B90C1"/>
<path d="M144.544 2.5819C144.544 1.50128 144.492 1.50128 143.875 1.34691L143.669 1.29545C143.566 1.19254 143.566 0.935247 143.72 0.883789C143.926 0.883789 144.132 0.935247 144.389 0.935247C144.647 0.935247 144.852 0.935247 145.11 0.935247H147.271C147.94 0.935247 148.557 0.935247 148.763 0.883789C148.763 1.08962 148.763 1.81003 148.815 2.47899C148.763 2.5819 148.609 2.63336 148.454 2.53044C148.403 2.53044 148.403 2.47899 148.403 2.47899C148.352 2.2217 148.249 1.96441 148.146 1.70712C147.888 1.29545 147.168 1.34691 146.808 1.34691H146.19C145.727 1.34691 145.676 1.34691 145.676 1.86149V3.71398C145.676 4.02273 145.676 4.02273 145.984 4.02273H146.808C147.631 4.02273 147.734 3.91981 147.837 3.45669L147.94 3.14794C148.043 3.04502 148.197 3.04502 148.3 3.14794C148.3 3.14794 148.3 3.14794 148.3 3.1994C148.3 3.66252 148.3 3.91981 148.3 4.28002C148.3 4.64022 148.3 4.94897 148.3 5.41209C148.197 5.51501 148.043 5.56646 147.94 5.46355C147.94 5.46355 147.94 5.46355 147.888 5.46355L147.785 5.1548C147.683 4.69168 147.58 4.53731 146.756 4.53731H145.933C145.624 4.53731 145.624 4.58876 145.624 4.89751V6.1325C145.624 7.21312 145.676 7.31604 146.345 7.36749L146.808 7.41895C146.911 7.52187 146.911 7.67624 146.808 7.77916C146.036 7.7277 145.521 7.7277 145.058 7.7277C144.595 7.7277 144.081 7.7277 143.463 7.77916C143.36 7.67624 143.309 7.52187 143.412 7.41895L143.72 7.36749C144.389 7.26458 144.441 7.21312 144.441 6.1325L144.544 2.5819Z" fill="#8B90C1"/>
<mask id="mask0_1133_63551" style="mask-type:luminance" maskUnits="userSpaceOnUse" x="0" y="0" width="28" height="36">
<path d="M4.68102 5.20558L2.98291 4.84538L4.11498 6.13183L2.98291 7.41828L4.68102 7.16099L5.24706 8.80764L5.8131 7.16099L7.51121 7.52119L6.37914 6.23474L7.51121 4.94829L5.8131 5.3085L5.24706 3.66184L4.68102 5.20558ZM5.24706 4.79392L5.55581 5.6687L6.43059 5.51433L5.86456 6.18328L6.43059 6.85224L5.55581 6.69786L5.24706 7.52119C5.14414 7.21244 4.93831 6.69786 4.93831 6.69786L4.06353 6.85224L4.68102 6.18328L4.06353 5.51433L4.93831 5.6687L5.24706 4.79392ZM8.84912 17.1438C8.95203 16.938 9.00349 16.7836 9.05495 16.6807C9.10641 16.6293 9.15787 16.5778 9.20932 16.5778H9.26078V16.5263H8.79766V16.5778H8.84912C8.90058 16.5778 8.90058 16.6293 8.90058 16.6807C8.79766 16.9895 8.64329 17.2982 8.54037 17.5555L8.43745 17.2982L8.28308 16.8865C8.23162 16.7836 8.18017 16.6807 8.18017 16.5778C8.18017 16.5778 8.18017 16.5778 8.23162 16.5263H8.28308V16.4749H7.71704V16.5263H7.7685C7.87142 16.5263 7.87142 16.5778 7.92288 16.7322L8.28308 17.6584C8.33454 17.7613 8.33454 17.8642 8.386 17.9157H8.43745H8.48891C8.54037 17.8128 8.64329 17.5555 8.69474 17.3497L8.84912 17.1438ZM9.82682 17.6584C9.82682 17.9157 9.82682 17.9157 9.92974 17.9157H9.98119V17.9672H9.41516V17.9157H9.46661C9.56953 17.9157 9.56953 17.9157 9.56953 17.6584V16.8351C9.56953 16.5778 9.56953 16.5778 9.46661 16.5778H9.41516V16.5263H9.98119V16.5778H9.92974C9.82682 16.5778 9.82682 16.5778 9.82682 16.8351V17.6584ZM10.7016 16.6807C10.7016 16.5778 10.7016 16.5778 10.6501 16.5778H10.5472C10.3414 16.5778 10.2899 16.5778 10.2385 16.7836H10.187C10.2385 16.6807 10.2385 16.5263 10.2899 16.4749H10.3414C10.3414 16.5263 10.3929 16.5263 10.5472 16.5263H11.422C11.5249 16.5263 11.5764 16.5263 11.5764 16.4749C11.5764 16.4749 11.5764 16.4749 11.6278 16.4749C11.5764 16.5778 11.5764 16.7322 11.5764 16.8351H11.5249C11.4735 16.6807 11.4735 16.6293 11.2162 16.6293H11.1133C11.0618 16.6293 11.0618 16.6293 11.0618 16.7322V17.6584C11.0618 17.9157 11.0618 17.9157 11.1647 17.9157H11.2162V17.9672H10.5987V17.9157H10.7016C10.8045 17.9157 10.8045 17.9157 10.8045 17.6584L10.7016 16.6807ZM12.1424 17.4526C12.1939 17.4526 12.2453 17.4526 12.2453 17.504L12.3483 17.7613C12.3483 17.8642 12.3483 17.8642 12.2968 17.8642H12.2453V17.9157H12.8114V17.8642H12.7599C12.657 17.8642 12.657 17.8128 12.6056 17.7099L12.2968 16.7836C12.2453 16.6807 12.2453 16.5778 12.1939 16.4749C12.1939 16.4749 12.1939 16.4749 12.1424 16.4749C12.091 16.5263 12.0395 16.5778 11.9881 16.5778C11.9881 16.6293 11.9881 16.6807 11.9366 16.7322L11.6278 17.504C11.5764 17.607 11.5249 17.7099 11.5249 17.7613C11.5249 17.8128 11.4735 17.8642 11.422 17.8642H11.3706V17.9157H11.8337V17.8642H11.7822C11.6793 17.8642 11.6793 17.8642 11.7308 17.7099L11.7822 17.504C11.7822 17.4526 11.8337 17.4526 11.8851 17.4526H12.1424ZM11.8851 17.3497C11.8337 17.3497 11.8337 17.3497 11.8337 17.2467L11.9366 16.9895L11.9881 16.8351C12.0395 16.8865 12.0395 16.938 12.0395 16.9895L12.1424 17.2467C12.1424 17.2982 12.1424 17.3497 12.091 17.3497H11.8851ZM8.54037 19.2536C8.54037 19.1507 8.54037 19.0992 8.54037 19.0992C8.59183 19.0992 8.64329 19.0478 8.69474 19.0478C9.00349 19.0478 9.26078 19.2536 9.26078 19.6653C9.26078 20.0769 9.10641 20.2828 8.7462 20.2828C8.54037 20.2828 8.54037 20.1799 8.54037 19.974V19.2536ZM8.33454 20.0769C8.33454 20.3342 8.33454 20.3342 8.23162 20.3342H8.18017V20.3857H8.54037H8.69474C8.84912 20.3857 9.05495 20.3857 9.20932 20.2828C9.41516 20.1284 9.56953 19.9226 9.51807 19.6653C9.51807 19.408 9.3637 19.0992 9.10641 18.9963C8.95203 18.9449 8.79766 18.8934 8.64329 18.8934C8.48891 18.8934 8.28308 18.8934 8.12871 18.8934V18.9449H8.18017C8.28308 18.9449 8.28308 18.9963 8.28308 19.2022L8.33454 20.0769ZM9.82682 19.2536C9.82682 19.0478 9.82682 18.9963 9.7239 18.9963H9.67245V18.9449H10.2385V18.9963H10.187C10.0841 18.9963 10.0841 18.9963 10.0841 19.2536V19.7682C10.0841 20.0769 10.187 20.3342 10.4443 20.3342C10.7016 20.3342 10.856 20.1284 10.856 19.7682V19.5109C10.856 19.3565 10.856 19.2022 10.8045 19.0992C10.8045 19.0478 10.7531 19.0478 10.7016 19.0478H10.6501V18.9963H11.1133V19.0478H11.0618C11.0104 19.0478 11.0104 19.0478 10.9589 19.0992C10.9589 19.2536 10.9074 19.408 10.9589 19.5109V19.7682C10.9589 19.974 10.9074 20.1284 10.8045 20.2828C10.7016 20.3857 10.5472 20.4371 10.3929 20.4371C10.2385 20.4371 10.0841 20.3857 9.92974 20.2828C9.82682 20.1799 9.77536 20.0255 9.82682 19.8196V19.2536ZM11.7308 19.2536C11.7308 19.0478 11.7308 18.9963 11.8337 18.9963H11.8851V18.9449H11.3191V18.9963H11.3706C11.4735 18.9963 11.4735 18.9963 11.4735 19.2536V20.0769C11.4735 20.2828 11.4735 20.3342 11.3706 20.3342H11.3191V20.3857H12.3483C12.3997 20.2828 12.3997 20.1799 12.3997 20.0769H12.3483C12.2453 20.2828 12.1939 20.3342 11.9881 20.3342C11.7822 20.3342 11.7822 20.3342 11.7822 20.2828C11.7308 20.2313 11.7308 20.1284 11.7308 20.0769V19.2536ZM21.5078 14.7768V13.6447C20.2213 14.1078 18.7805 14.2107 17.4426 13.9534C14.9726 13.5932 13.9949 14.2622 13.9949 14.2622C13.9949 14.2622 12.9658 13.5932 10.5472 13.9534C9.20932 14.2107 7.7685 14.1078 6.48205 13.6447V14.7768H5.8131V23.4732H12.9143C13.223 23.7819 13.6347 23.9363 14.0464 23.8848C14.458 23.8848 14.8697 23.7305 15.1784 23.4732H22.2797V14.7768H21.5078ZM13.6862 22.5984C13.6862 22.5984 12.8114 22.0323 10.3929 22.3411C7.97433 22.6498 7.04809 22.0838 7.04809 22.0838V14.4166C7.04809 14.4166 8.07725 14.8282 10.5472 14.5195C13.0172 14.2107 13.6862 14.7768 13.6862 14.7768V22.5984ZM20.9417 22.0838C20.9417 22.0838 20.067 22.6498 17.597 22.3411C15.127 22.0323 14.3037 22.5984 14.3037 22.5984V14.7768C14.3037 14.7768 15.0241 14.2107 17.4426 14.5195C19.8611 14.8282 20.9417 14.4166 20.9417 14.4166V22.0838ZM16.0018 16.8865C15.9503 16.938 16.0018 16.938 16.0018 16.8865C15.9503 16.8865 15.9503 16.8865 15.9503 16.8865C15.8989 16.7322 15.7445 16.5778 15.5901 16.5778C15.3328 16.5778 15.127 16.7836 15.127 17.1953C15.127 17.607 15.3843 17.8642 15.6416 17.8642C15.8474 17.8642 16.0018 17.7099 16.0532 17.5555H16.1047C16.1047 17.6584 16.0532 17.7613 16.0018 17.8642H15.9503C15.8474 17.9157 15.7445 17.9157 15.6416 17.9157C15.4872 17.9157 15.2814 17.8642 15.1784 17.7613C15.0241 17.607 14.9212 17.4011 14.9212 17.1953C14.9212 16.9895 15.0241 16.7836 15.1784 16.6293C15.3328 16.5263 15.4872 16.4749 15.693 16.4749C15.7959 16.4749 15.8989 16.4749 16.0018 16.5263H16.0532C15.9503 16.5778 15.9503 16.6807 16.0018 16.8865ZM16.362 16.8351C16.362 16.5778 16.362 16.5778 16.2591 16.5778H16.2076V16.5263H17.1339C17.1339 16.5778 17.1339 16.7322 17.1853 16.8351H17.1339C17.0824 16.7322 17.0824 16.6293 16.9795 16.6293C16.928 16.6293 16.8766 16.6293 16.8251 16.6293H16.7222C16.6193 16.6293 16.6193 16.6293 16.6193 16.7322V17.1438C16.6193 17.1953 16.6193 17.1953 16.6707 17.1953H16.7222C16.928 17.1953 16.928 17.1953 16.9795 17.0924V17.0409H17.0309C17.0309 17.0409 17.0309 17.1953 17.0309 17.2467C17.0309 17.2982 17.0309 17.4011 17.0309 17.4526C17.0309 17.504 16.9795 17.4526 16.9795 17.4526V17.3497C16.9795 17.2467 16.928 17.2467 16.7222 17.2467H16.6707C16.6193 17.2467 16.6193 17.2467 16.6193 17.2982V17.607C16.6193 17.7099 16.6193 17.8128 16.6707 17.8128C16.7222 17.8128 16.7222 17.8642 16.8766 17.8642C17.1339 17.8642 17.1853 17.8128 17.2368 17.607H17.2882C17.2882 17.7099 17.2368 17.8128 17.1853 17.9157H16.1562V17.8642H16.2076C16.3105 17.8642 16.3105 17.8642 16.3105 17.607L16.362 16.8351ZM17.8543 16.7836C17.8543 16.6807 17.8543 16.6293 17.8543 16.6293C17.8543 16.6293 17.8543 16.6293 17.9572 16.6293C18.3174 16.6293 18.5232 16.8351 18.5232 17.2467C18.5232 17.6584 18.3688 17.8642 18.0086 17.8642C17.8028 17.8642 17.8543 17.7613 17.8543 17.5555V16.7836ZM17.597 17.6584C17.597 17.9157 17.597 17.9157 17.4941 17.9157H17.4426V17.9672H17.9572C18.1116 17.9672 18.2659 17.9157 18.4203 17.8642C18.6261 17.7613 18.7805 17.504 18.7805 17.2467C18.7805 16.938 18.6261 16.6807 18.3688 16.5778C18.2145 16.5263 18.0601 16.4749 17.9057 16.5263C17.6999 16.5263 17.597 16.5263 17.4426 16.5263V16.5778H17.4941C17.597 16.5778 17.597 16.6293 17.597 16.8351V17.6584ZM19.6553 16.5778C19.964 16.5778 20.1184 16.938 20.1184 17.2982C20.1184 17.7099 19.964 17.9157 19.7068 17.9157C19.3465 17.9157 19.2436 17.504 19.2436 17.1953C19.2436 16.7322 19.4495 16.5778 19.6553 16.5778ZM19.6553 16.4749C19.2436 16.4749 18.9349 16.7836 18.9349 17.1953V17.2467C18.9349 17.607 19.1922 17.9672 19.6038 17.9672H19.6553C20.067 17.9672 20.3757 17.6584 20.3757 17.2467C20.3757 17.2467 20.3757 17.2467 20.3757 17.1953C20.4272 16.8351 20.1184 16.4749 19.7582 16.4234C19.7068 16.4749 19.7068 16.4749 19.6553 16.4749ZM15.3843 20.3342C15.3328 20.2313 15.3328 20.1284 15.3328 19.974H15.3843C15.4357 20.0769 15.5387 20.3342 15.7445 20.3342C15.8474 20.3342 16.0018 20.2828 16.0018 20.1284C16.0018 20.1284 16.0018 20.1284 16.0018 20.0769C16.0018 19.9226 15.8989 19.8196 15.7959 19.7682L15.693 19.7167C15.5387 19.6653 15.4357 19.4594 15.3843 19.3051C15.3843 19.0992 15.5387 18.8934 15.8474 18.8934C15.9503 18.8934 16.0532 18.8934 16.1562 18.9449C16.2076 19.0478 16.2076 19.1507 16.2076 19.2536H16.1562C16.1562 19.0992 16.0018 18.9963 15.8474 18.9963C15.7445 18.9963 15.6416 19.0992 15.5901 19.2022C15.5901 19.2022 15.5901 19.2022 15.5901 19.2536C15.5901 19.3565 15.693 19.4594 15.7959 19.5109L15.8989 19.6138C16.0532 19.6653 16.2076 19.8711 16.2076 20.0255C16.2076 20.2828 16.0018 20.4371 15.7959 20.4371C15.7445 20.4371 15.7445 20.4371 15.693 20.4371C15.5901 20.4371 15.4872 20.3857 15.3843 20.3342ZM16.6193 19.3051C16.6193 19.0992 16.6193 19.0478 16.5164 19.0478H16.4649V18.9963C16.6193 18.9963 16.7736 18.9963 16.928 18.9963C17.0824 18.9963 17.2368 18.9963 17.3911 19.0992C17.4941 19.1507 17.597 19.3051 17.5455 19.408C17.5455 19.6653 17.3397 19.8196 17.0824 19.8196H17.0309V19.7682C17.1853 19.7167 17.2882 19.5624 17.2882 19.408C17.2882 19.2536 17.1853 19.0992 17.0309 19.0992C17.0309 19.0992 17.0309 19.0992 16.9795 19.0992C16.8766 19.0992 16.8766 19.0992 16.8766 19.2022V20.1284C16.8766 20.3857 16.8766 20.3857 16.9795 20.3857H17.0824V20.4371H16.4649V20.3857H16.5164C16.6193 20.3857 16.6193 20.3857 16.6193 20.1284V19.3051ZM17.9057 20.0769C17.9057 20.3342 17.9057 20.3342 17.8028 20.3342H17.6999V20.3857H18.729C18.7805 20.2828 18.7805 20.1799 18.832 20.0769H18.7805C18.7291 20.2313 18.6776 20.3342 18.4203 20.3342C18.2659 20.3342 18.2145 20.3342 18.163 20.2828C18.1116 20.2313 18.1116 20.1284 18.1116 20.0769V19.8196C18.1116 19.7682 18.1116 19.7682 18.163 19.7682H18.2659C18.4718 19.7682 18.4718 19.7682 18.5232 19.8711V19.974H18.5747C18.5747 19.974 18.5747 19.8196 18.5747 19.7167C18.5747 19.6138 18.5747 19.5624 18.5747 19.5109C18.5747 19.4594 18.5232 19.5109 18.5232 19.5109V19.5624C18.5232 19.6653 18.4718 19.6653 18.2659 19.6653H18.163C18.1116 19.6653 18.1116 19.6653 18.1116 19.6138V19.1507C18.1116 19.0478 18.1116 19.0478 18.2145 19.0478H18.3688C18.4203 19.0478 18.4718 19.0478 18.5232 19.0478C18.5747 19.0478 18.6261 19.0992 18.6776 19.2536H18.729C18.729 19.1507 18.7291 18.9963 18.6776 18.9449H17.7514V18.9963H17.8028C17.9057 18.9963 17.9057 18.9963 17.9057 19.2536V20.0769ZM19.0893 20.3342C19.0378 20.2313 19.0378 20.1284 19.0378 19.974H19.0893C19.1407 20.0769 19.2436 20.3342 19.4495 20.3342C19.5524 20.3342 19.6553 20.2828 19.7068 20.1284C19.7068 20.1284 19.7068 20.1284 19.7068 20.0769C19.7068 19.9226 19.6038 19.8196 19.5009 19.7682L19.398 19.7167C19.2436 19.6653 19.1407 19.4594 19.0893 19.3051C19.0893 19.0992 19.2436 18.8934 19.5524 18.8934C19.6553 18.8934 19.7582 18.8934 19.8611 18.9449C19.9126 19.0478 19.9126 19.1507 19.9126 19.2536H19.8611C19.8611 19.0992 19.7068 18.9963 19.6038 18.9963C19.5009 18.9963 19.398 19.0992 19.3465 19.2022C19.3465 19.2022 19.3465 19.2022 19.3465 19.2536C19.3465 19.3565 19.4495 19.4594 19.5524 19.5109L19.7068 19.6138C19.8611 19.6653 20.0155 19.8711 20.0155 20.0255C20.0155 20.2828 19.8097 20.4371 19.6038 20.4371H19.5524C19.2951 20.4371 19.1922 20.3857 19.0893 20.3342ZM13.9949 0.93457H0.0498047V13.5932C0.0498047 25.6859 7.71704 32.1696 13.9949 35.6687C20.2728 32.1181 27.94 25.6859 27.94 13.5932V0.93457H13.9949ZM13.9949 33.5075C13.326 33.0958 12.657 32.6841 11.9366 32.221C12.5541 31.8094 13.2745 31.6035 13.9949 31.6035C14.7153 31.6035 15.4357 31.8608 16.0532 32.221C15.3328 32.7356 14.6639 33.0958 13.9949 33.5075ZM18.832 30.0083C18.6261 30.2656 18.3174 30.42 17.9572 30.4715C17.8028 30.5229 17.597 30.5229 17.4426 30.5229C16.0018 30.5229 15.693 29.6481 13.9949 29.6481C12.2968 29.6481 11.9366 30.5229 10.5472 30.5229C10.3929 30.5229 10.187 30.5229 10.0327 30.4715C9.7239 30.42 9.41516 30.2142 9.15787 30.0083C8.43746 29.3908 7.81996 28.7219 7.20246 28.0529C8.48891 28.0529 8.84912 28.8248 10.4958 28.8248C11.9366 28.8248 12.2453 27.95 13.9435 27.95C15.6416 27.95 16.0018 28.8248 17.3911 28.8248C19.0893 28.8248 19.398 28.0529 20.6845 28.0529C20.1699 28.7219 19.5524 29.3908 18.832 30.0083ZM26.0361 13.8505C26.0875 18.2759 24.7496 22.5984 22.1767 26.2519C21.8165 26.149 21.4563 26.0975 21.0447 26.0975C19.6038 26.0975 19.1407 26.9723 17.4426 26.9723C16.4134 26.9723 15.9503 26.5092 15.0755 26.2519V24.1936C15.0755 24.1936 14.8182 24.5538 13.9435 24.5538C13.0687 24.5538 12.9143 24.0907 12.9143 24.0907V26.149C12.0395 26.4063 11.6278 26.8694 10.5472 26.8694C8.79766 26.8694 8.386 25.9946 6.94517 25.9946C6.58497 25.9946 6.1733 26.0461 5.8131 26.149C3.2402 22.5469 1.90229 18.2245 1.95375 13.7991V2.83852H26.0361V13.8505ZM15.127 11.3805H19.9126L21.5592 12.3068V8.49889L19.9126 9.42514H15.127V5.72016L16.0532 4.07351H11.9366L12.9143 5.72016V9.42514H8.07725L6.43059 8.49889V12.3068L8.02579 11.3805H12.9143V13.3359C13.326 13.3874 13.6862 13.4903 14.0464 13.6447C14.4066 13.4903 14.7668 13.3359 15.1784 13.3359L15.127 11.3805ZM12.1424 19.6653H12.1939C12.1939 19.6138 12.2453 19.5624 12.3483 19.5624C12.3997 19.5624 12.4512 19.5624 12.5026 19.6138C12.657 19.7167 12.7085 19.7167 12.7599 19.7167C12.8114 19.7167 12.9658 19.6653 12.9658 19.4594H12.9143C12.9143 19.5624 12.8628 19.6138 12.7599 19.6138C12.657 19.6138 12.7085 19.6138 12.5541 19.5109C12.5026 19.4594 12.3997 19.4594 12.2968 19.408C12.3483 19.4594 12.1939 19.4594 12.1424 19.6653Z" fill="white"/>
</mask>
<g mask="url(#mask0_1133_63551)">
<path d="M30.9246 0.625977H0.0498047V41.7924H30.9246V0.625977Z" fill="#8B90C1"/>
</g>
</g>
<defs>
<clipPath id="clip0_1133_63551">
<rect width="150" height="35.0943" fill="white" transform="translate(0.0498047 0.625977)"/>
</clipPath>
</defs>
</svg>
