<svg width="77" height="42" viewBox="0 0 77 42" fill="none" xmlns="http://www.w3.org/2000/svg">
<g clip-path="url(#clip0_1054_49928)">
<path d="M40.8851 13.9169L45.2431 13.9673C50.0435 14.0344 52.4191 14.6214 54.6473 16.3155C60.4307 20.7435 60.7584 33.4406 55.2043 38.5731C52.996 40.6046 51.1002 41.1479 45.7003 41.172L40.6393 41.1729L40.7704 27.5533L40.8851 13.9169ZM75.0285 13.9002L75.1596 17.2883L75.2906 20.6596H69.3434V23.9136H74.8155V30.4718H69.3434V34.4134H75.0449L75.1759 37.7848L75.307 41.1561H68.6716C63.7402 41.1729 61.9708 41.0219 61.8069 40.5858C61.6922 40.2672 61.6431 34.1283 61.7086 26.9495L61.8233 13.9002H75.0285ZM15.6215 18.3785C15.6215 20.4081 15.4741 22.0686 15.2775 22.0686C15.0973 22.0686 14.5402 21.7499 14.0487 21.3641C12.2629 19.972 9.67433 20.9112 8.52747 23.3601C7.36424 25.876 7.75744 31.4111 9.21558 33.0045C10.5098 34.4134 13.0002 34.6147 14.6385 33.4574C15.2119 33.038 15.7198 32.7865 15.7854 32.8703C15.8345 32.9542 15.769 34.6986 15.6379 36.7449C15.4085 40.2168 15.3102 40.4684 14.2453 40.7704C12.0991 41.3742 8.57662 41.1729 6.74166 40.3175C2.21978 38.2041 -0.123067 33.2561 0.237373 26.5469C0.646963 19.0495 4.93946 14.1518 11.1816 14.0344C15.4577 13.9505 15.6215 14.1182 15.6215 18.3785ZM36.5926 20.3074C37.4773 22.3537 37.6739 23.5781 37.6739 27.4527C37.6903 31.8136 37.5919 32.3336 36.1666 35.2856C34.1842 39.395 32.1526 40.8709 28.1878 41.0723C26.0907 41.1561 25.0093 40.9715 23.7478 40.2672C18.8819 37.5499 16.4243 30.5053 17.8661 23.3936C20.0615 12.5751 32.3492 10.5455 36.5926 20.3074ZM48.1752 27.3143L48.1758 27.6372C48.1758 33.5245 48.2577 34.1786 48.9622 34.1786C49.4045 34.1954 50.109 33.625 50.5514 32.9206C51.7965 30.975 51.6982 24.4671 50.4039 22.6724C48.452 19.997 48.1678 20.525 48.1752 27.3143ZM25.4189 27.6707C25.4517 32.669 26.0579 34.3128 27.7782 34.1115C28.8103 33.9772 29.1708 33.5916 29.6623 32.0988C30.4651 29.6499 30.1046 23.4272 29.0561 21.8002C27.2047 18.9153 25.3862 21.8673 25.4189 27.6707ZM14.9541 1.17285C16.1772 1.17285 17.159 1.63126 17.8832 2.53108C18.6074 3.43091 18.9776 4.63635 18.9776 6.16436C18.9776 7.70935 18.6074 8.94874 17.8832 9.83159C17.1429 10.7315 16.145 11.1729 14.8897 11.1729C13.6826 11.1729 12.717 10.7145 12.0088 9.81462C11.2846 8.89781 10.9305 7.69237 10.9305 6.18134C10.9305 4.65333 11.3007 3.43091 12.0249 2.53108C12.7492 1.63126 13.7309 1.17285 14.9541 1.17285ZM72.1776 1.17285C73.4008 1.17285 74.3825 1.63126 75.1067 2.53108C75.831 3.43091 76.2011 4.63635 76.2011 6.16436C76.2011 7.70935 75.831 8.94874 75.1067 9.83159C74.3664 10.7315 73.3686 11.1729 72.1132 11.1729C70.9062 11.1729 69.9405 10.7145 69.2324 9.81462C68.5081 8.89781 68.1541 7.69237 68.1541 6.18134C68.1541 4.65333 68.5242 3.43091 69.2485 2.53108C69.9727 1.63126 70.9544 1.17285 72.1776 1.17285ZM61.0099 1.17285V4.86755H64.5689V1.17285H66.3658V10.2638H64.5689V6.11532H61.0099V10.2638H59.2129V1.17285H61.0099ZM1.7833 1.17285L3.25125 7.82869L4.63765 1.17285H6.04036L7.36152 7.79623L8.91103 1.17285H10.0364L7.93239 10.2638H6.33395L5.09435 4.01376L3.7895 10.2638H2.20737L0.201172 1.17285H1.7833ZM22.9723 1.17285L24.9029 7.55755L26.8822 1.17285H28.8129V10.2638H27.2716V3.39291L25.3248 9.64798H23.9782L22.08 3.29568V10.2476H20.7658V1.17285H22.9723ZM50.0604 1.17285L51.5235 7.81683L52.9053 1.17285H54.3034L55.6202 7.78442L57.1645 1.17285H58.3188L56.2217 10.2638H54.6285L53.393 4.0249L52.0925 10.2638H50.4831L48.4835 1.17285H50.0604ZM35.6852 1.17285V2.42062H32.3013V4.94858H35.091V6.16394H32.3178V8.96737H35.9658V10.2638H30.6011V1.17285H35.6852ZM39.1623 1.17285L42.7298 7.3793V1.17285H44.0129V10.2638H42.5734L39.0371 4.0411V10.2476H37.7541V1.17285H39.1623ZM72.1454 2.48015C71.4534 2.48015 70.9062 2.81971 70.4877 3.48185C70.0693 4.14399 69.8761 5.04382 69.8761 6.16436C69.8761 7.26793 70.0854 8.16776 70.4877 8.84687C70.9223 9.52599 71.4534 9.86555 72.1293 9.86555C72.8374 9.86555 73.4008 9.52599 73.8031 8.86385C74.2216 8.20171 74.4147 7.2849 74.4147 6.14738C74.4147 5.04382 74.2055 4.16097 73.787 3.48185C73.3686 2.81971 72.8214 2.48015 72.1454 2.48015ZM14.938 2.48015C14.2459 2.48015 13.6987 2.81971 13.2803 3.48185C12.8618 4.14399 12.6687 5.04382 12.6687 6.16436C12.6687 7.26793 12.8779 8.16776 13.2803 8.84687C13.6987 9.52599 14.2459 9.86555 14.9058 9.86555C15.6139 9.86555 16.1772 9.52599 16.5796 8.86385C16.998 8.20171 17.1912 7.2849 17.1912 6.14738C17.1912 5.04382 16.9819 4.16097 16.5635 3.48185C16.145 2.80273 15.63 2.48015 14.938 2.48015Z" fill="#8B90C1"/>
</g>
<defs>
<clipPath id="clip0_1054_49928">
<rect width="77" height="41" fill="white" transform="translate(0 0.672852)"/>
</clipPath>
</defs>
</svg>
